<?xml version="1.0" encoding="UTF-8"?>
<!DOCTYPE svg PUBLIC "-//W3C//DTD SVG 1.1//EN" "http://www.w3.org/Graphics/SVG/1.1/DTD/svg11.dtd">
<!-- Creator: CorelDRAW 2019 (64-Bit) -->
<svg xmlns="http://www.w3.org/2000/svg" xml:space="preserve" width="10mm" height="10mm" version="1.1" style="shape-rendering:geometricPrecision; text-rendering:geometricPrecision; image-rendering:optimizeQuality; fill-rule:evenodd; clip-rule:evenodd"
viewBox="0 0 1000 1000"
 xmlns:xlink="http://www.w3.org/1999/xlink"
 xmlns:xodm="http://www.corel.com/coreldraw/odm/2003">
 <defs>
  <style type="text/css">
   <![CDATA[
    .fil0 {fill:#E1306C}
    .fil1 {fill:white}
   ]]>
  </style>
 </defs>
 <g id="Слой_x0020_1">
  <metadata id="CorelCorpID_0Corel-Layer"/>
  <g id="Icons_x002f_Sprites_x002f_instagram">
   <g id="instagram-active">
    <circle id="bg-active" class="fil0" cx="489.59" cy="536.87" r="370.41"/>
    <path id="Combined-Shape" class="fil1" d="M489.53 351.78c50.29,0 56.59,0.21 76.34,1.11 19.71,0.9 33.16,4.03 44.94,8.61 12.18,4.73 22.5,11.06 32.8,21.35 10.29,10.29 16.62,20.62 21.35,32.79 4.58,11.78 7.71,25.24 8.61,44.95 0.9,19.75 1.11,26.05 1.11,76.34 0,50.28 -0.21,56.58 -1.11,76.33 -0.9,19.71 -4.03,33.17 -8.61,44.95 -4.73,12.17 -11.06,22.5 -21.35,32.79 -10.3,10.29 -20.62,16.62 -32.8,21.36 -11.78,4.57 -25.23,7.7 -44.94,8.6 -19.75,0.9 -26.05,1.12 -76.34,1.12 -50.28,0 -56.59,-0.22 -76.34,-1.12 -19.7,-0.9 -33.16,-4.03 -44.94,-8.6 -12.17,-4.74 -22.5,-11.07 -32.79,-21.36 -10.3,-10.29 -16.63,-20.62 -21.36,-32.79 -4.58,-11.78 -7.71,-25.24 -8.6,-44.95 -0.91,-19.75 -1.12,-26.05 -1.12,-76.33 0,-50.29 0.21,-56.59 1.12,-76.34 0.89,-19.71 4.02,-33.17 8.6,-44.95 4.73,-12.17 11.06,-22.5 21.36,-32.79 10.29,-10.29 20.62,-16.62 32.79,-21.35 11.78,-4.58 25.24,-7.71 44.94,-8.61 19.75,-0.9 26.06,-1.11 76.34,-1.11zm0 33.36c-49.44,0 -55.29,0.18 -74.81,1.08 -18.06,0.82 -27.86,3.83 -34.38,6.37 -8.65,3.36 -14.81,7.37 -21.29,13.85 -6.48,6.48 -10.49,12.65 -13.85,21.29 -2.54,6.52 -5.56,16.33 -6.38,34.38 -0.89,19.52 -1.08,25.38 -1.08,74.82 0,49.43 0.19,55.29 1.08,74.81 0.82,18.05 3.84,27.86 6.38,34.38 3.36,8.64 7.37,14.81 13.85,21.29 6.48,6.48 12.64,10.49 21.29,13.85 6.52,2.54 16.32,5.55 34.38,6.38 19.52,0.89 25.37,1.07 74.81,1.07 49.44,0 55.3,-0.18 74.82,-1.07 18.05,-0.83 27.85,-3.84 34.38,-6.38 8.64,-3.36 14.81,-7.37 21.29,-13.85 6.48,-6.48 10.49,-12.65 13.85,-21.29 2.53,-6.52 5.55,-16.33 6.37,-34.38 0.89,-19.52 1.08,-25.38 1.08,-74.81 0,-49.44 -0.19,-55.3 -1.08,-74.82 -0.82,-18.05 -3.84,-27.86 -6.37,-34.38 -3.36,-8.64 -7.37,-14.81 -13.85,-21.29 -6.48,-6.48 -12.65,-10.49 -21.29,-13.85 -6.53,-2.54 -16.33,-5.55 -34.38,-6.37 -19.53,-0.9 -25.38,-1.08 -74.82,-1.08zm0 56.71c52.51,0 95.08,42.57 95.08,95.08 0,52.5 -42.57,95.07 -95.08,95.07 -52.51,0 -95.08,-42.57 -95.08,-95.07 0,-52.51 42.57,-95.08 95.08,-95.08zm0 156.79c34.09,0 61.72,-27.63 61.72,-61.71 0,-34.09 -27.63,-61.72 -61.72,-61.72 -34.08,0 -61.72,27.63 -61.72,61.72 0,34.08 27.64,61.71 61.72,61.71zm121.05 -160.55c0,12.27 -9.94,22.22 -22.22,22.22 -12.27,0 -22.21,-9.95 -22.21,-22.22 0,-12.27 9.94,-22.22 22.21,-22.22 12.28,0 22.22,9.95 22.22,22.22z"/>
   </g>
  </g>
 </g>
</svg>
