<?xml version="1.0" encoding="UTF-8"?>
<!DOCTYPE svg PUBLIC "-//W3C//DTD SVG 1.1//EN" "http://www.w3.org/Graphics/SVG/1.1/DTD/svg11.dtd">
<!-- Creator: CorelDRAW 2019 (64-Bit) -->
<svg xmlns="http://www.w3.org/2000/svg" xml:space="preserve" width="10mm" height="10mm" version="1.1" style="shape-rendering:geometricPrecision; text-rendering:geometricPrecision; image-rendering:optimizeQuality; fill-rule:evenodd; clip-rule:evenodd"
viewBox="0 0 1000 1000"
 xmlns:xlink="http://www.w3.org/1999/xlink"
 xmlns:xodm="http://www.corel.com/coreldraw/odm/2003">
 <defs>
  <style type="text/css">
   <![CDATA[
    .fil0 {fill:#ED812B}
    .fil1 {fill:#FEFEFE;fill-rule:nonzero}
   ]]>
  </style>
 </defs>
 <g id="Слой_x0020_1">
  <metadata id="CorelCorpID_0Corel-Layer"/>
  <g id="Icons_x002f_Sprites_x002f_ok">
   <g id="ok">
    <circle id="Oval" class="fil0" cx="503.59" cy="504.98" r="370.41"/>
    <path id="Shape" class="fil1" d="M493.03 340.35c46.08,0.12 83.07,37.82 82.83,84.4 -0.23,45.52 -37.82,82.41 -83.82,82.25 -45.54,-0.15 -82.88,-37.9 -82.61,-83.51 0.26,-46.1 37.62,-83.27 83.6,-83.14zm93.34 199.39c-10.19,10.46 -22.46,18.03 -36.08,23.31 -12.88,5 -26.99,7.51 -40.95,9.18 2.11,2.3 3.1,3.42 4.42,4.74 18.95,19.06 38,38.02 56.89,57.13 6.44,6.51 7.78,14.59 4.24,22.15 -3.87,8.28 -12.55,13.72 -21.06,13.13 -5.39,-0.37 -9.6,-3.05 -13.33,-6.81 -14.31,-14.39 -28.89,-28.53 -42.9,-43.2 -4.09,-4.27 -6.04,-3.45 -9.65,0.25 -14.39,14.83 -29.02,29.41 -43.73,43.92 -6.61,6.51 -14.47,7.69 -22.13,3.97 -8.15,-3.94 -13.33,-12.26 -12.93,-20.63 0.28,-5.65 3.06,-9.97 6.94,-13.84 18.77,-18.72 37.47,-37.51 56.19,-56.28 1.24,-1.25 2.39,-2.57 4.2,-4.5 -25.53,-2.67 -48.54,-8.95 -68.25,-24.36 -2.45,-1.92 -4.97,-3.77 -7.19,-5.92 -8.64,-8.28 -9.5,-17.77 -2.68,-27.54 5.84,-8.36 15.64,-10.6 25.83,-5.79 1.97,0.92 3.85,2.09 5.65,3.33 36.72,25.24 87.17,25.93 124.03,1.13 3.65,-2.79 7.56,-5.08 12.08,-6.24 8.79,-2.26 17,0.98 21.72,8.67 5.39,8.8 5.33,17.37 -1.31,24.2zm-93.68 -152.52c-21.42,0 -38.78,17.36 -38.78,38.78 0,21.42 17.36,38.79 38.78,38.79 21.42,0 38.79,-17.37 38.79,-38.79 0,-21.42 -17.37,-38.78 -38.79,-38.78z"/>
   </g>
  </g>
 </g>
</svg>
