<?xml version="1.0" encoding="UTF-8"?>
<!DOCTYPE svg PUBLIC "-//W3C//DTD SVG 1.1//EN" "http://www.w3.org/Graphics/SVG/1.1/DTD/svg11.dtd">
<!-- Creator: CorelDRAW 2019 (64-Bit) -->
<svg xmlns="http://www.w3.org/2000/svg" xml:space="preserve" width="10mm" height="10mm" version="1.1" style="shape-rendering:geometricPrecision; text-rendering:geometricPrecision; image-rendering:optimizeQuality; fill-rule:evenodd; clip-rule:evenodd"
viewBox="0 0 1000 1000"
 xmlns:xlink="http://www.w3.org/1999/xlink"
 xmlns:xodm="http://www.corel.com/coreldraw/odm/2003">
 <defs>
  <style type="text/css">
   <![CDATA[
    .fil0 {fill:#45668E}
    .fil1 {fill:#FEFEFE;fill-rule:nonzero}
   ]]>
  </style>
 </defs>
 <g id="Слой_x0020_1">
  <metadata id="CorelCorpID_0Corel-Layer"/>
  <g id="Icons_x002f_Sprites_x002f_vk">
   <g id="vk">
    <circle id="Oval" class="fil0" cx="502.64" cy="513.23" r="370.41"/>
    <path id="vk-icon" class="fil1" d="M600.63 543.37c10.75,10.5 22.12,20.38 31.77,31.96 4.28,5.13 8.31,10.42 11.37,16.38 4.38,8.5 0.43,17.82 -7.18,18.33l-47.25 -0.01c-12.2,1.01 -21.91,-3.91 -30.09,-12.26 -6.54,-6.65 -12.6,-13.75 -18.9,-20.62 -2.57,-2.82 -5.28,-5.48 -8.51,-7.57 -6.44,-4.19 -12.03,-2.91 -15.72,3.82 -3.76,6.85 -4.62,14.44 -4.98,22.06 -0.51,11.14 -3.87,14.05 -15.05,14.57 -23.89,1.12 -46.55,-2.5 -67.62,-14.55 -18.58,-10.62 -32.96,-25.61 -45.49,-42.58 -24.41,-33.09 -43.1,-69.4 -59.89,-106.76 -3.78,-8.41 -1.01,-12.91 8.27,-13.09 15.42,-0.29 30.84,-0.26 46.26,-0.01 6.27,0.1 10.43,3.69 12.84,9.61 8.33,20.5 18.55,40.01 31.35,58.1 3.41,4.82 6.89,9.62 11.85,13.02 5.47,3.76 9.65,2.52 12.23,-3.59 1.65,-3.89 2.36,-8.04 2.72,-12.2 1.23,-14.25 1.37,-28.5 -0.75,-42.7 -1.32,-8.89 -6.32,-14.63 -15.18,-16.31 -4.51,-0.85 -3.85,-2.52 -1.65,-5.1 3.81,-4.45 7.37,-7.21 14.5,-7.21l53.38 -0.01c8.42,1.66 10.3,5.43 11.45,13.91l0.04 59.32c-0.1,3.28 1.65,13 7.54,15.14 4.72,1.56 7.83,-2.22 10.65,-5.21 12.8,-13.59 21.93,-29.62 30.09,-46.21 3.61,-7.32 6.72,-14.9 9.74,-22.48 2.24,-5.61 5.74,-8.37 12.07,-8.28l51.4 0.06c1.52,0 3.06,0.02 4.56,0.28 8.66,1.48 11.03,5.2 8.35,13.66 -4.22,13.27 -12.41,24.33 -20.42,35.42 -8.59,11.87 -17.75,23.33 -26.25,35.25 -7.82,10.9 -7.2,16.39 2.5,25.86z"/>
   </g>
  </g>
 </g>
</svg>
